<svg width="118" height="117" viewBox="0 0 118 117" fill="none" xmlns="http://www.w3.org/2000/svg">
<path d="M89.1052 0.44751H28.7242C13.5007 0.44751 1.15967 12.7886 1.15967 28.012V88.3931C1.15967 103.617 13.5007 115.958 28.7242 115.958H89.1052C104.329 115.958 116.67 103.617 116.67 88.3931V28.012C116.67 12.7886 104.329 0.44751 89.1052 0.44751Z" fill="url(#paint0_linear)"/>
<path d="M117.03 88.2118V58.3709H117.125V58.0416H117.03V28.2007C117.028 20.8826 114.181 13.8519 109.089 8.59557V8.05412H117.03V7.72248H109.319L116.723 0.277496L116.498 0.0518901L109.096 7.49688V0.21207H108.766V7.72248H108.207C103.026 2.77011 96.1363 0.00436456 88.9693 0H28.771C21.6071 0.00668463 14.721 2.77226 9.54261 7.72248H8.98085V0.21207H8.65372V7.49011L1.2516 0.0451204L1.02599 0.270726L8.42811 7.71571H1.18166V8.0451H8.65372V8.59557C3.56136 13.8515 0.713418 20.8824 0.712402 28.2007V88.2118C0.713418 95.5301 3.56136 102.561 8.65372 107.817V108.367H1.18166V108.697H8.42135L1.01923 116.142L1.24483 116.367L8.64695 108.922V116.2H8.97408V108.69H9.53584C14.716 113.642 21.6048 116.408 28.771 116.413H88.9693C96.134 116.406 103.021 113.641 108.2 108.69H108.759V116.2H109.089V108.922L116.491 116.367L116.717 116.142L109.312 108.697H117.125V108.367H109.089V107.817C114.179 102.56 117.027 95.5297 117.03 88.2118ZM116.701 88.2118C116.7 95.3257 113.977 102.17 109.089 107.339V79.0635H116.583V78.7364H109.089V58.3709H116.701V88.2118ZM79.5232 78.7364L79.2976 78.5108C79.6721 78.1302 80.0353 77.7392 80.3873 77.3376V78.7364H79.5232ZM80.3873 79.0657V79.6049L79.8503 79.0657H80.3873ZM37.5425 78.7364V77.5519C37.8358 77.8791 38.1381 78.1972 38.4449 78.5108L38.2193 78.7364H37.5425ZM37.8922 79.0657L37.5425 79.4132V79.0635L37.8922 79.0657ZM38.2193 37.6761L38.4449 37.9017C38.1381 38.2153 37.8358 38.5357 37.5425 38.8606V37.6761H38.2193ZM37.5425 37.3468V36.9993L37.8922 37.349L37.5425 37.3468ZM80.3873 37.6761V39.0749C80.0353 38.6733 79.6721 38.2823 79.2976 37.9017L79.5232 37.6761H80.3873ZM79.8503 37.3468L80.3873 36.8076V37.3468H79.8503ZM80.3873 58.0393H79.6157C79.5814 52.6266 77.444 47.4392 73.6552 43.5735L79.0697 38.1364C79.521 38.5981 79.9616 39.0772 80.3918 39.5735L80.3873 58.0393ZM80.7144 39.9638C84.9224 45.0497 87.2348 51.4383 87.257 58.0393H80.7144V39.9638ZM73.4228 43.7991C77.1521 47.601 79.2558 52.7048 79.2886 58.0303H59.2661L73.4228 43.7991ZM59.036 57.7866V37.6761C64.3433 37.7132 69.4248 39.8287 73.1905 43.569L59.036 57.7866ZM58.7066 57.7866L44.5498 43.5532C48.3197 39.8198 53.4011 37.7103 58.7066 37.6761V57.7866ZM58.481 58.0122H38.454C38.4879 52.687 40.5914 47.5836 44.3197 43.781L58.481 58.0122ZM58.481 58.3416L44.3242 72.5728C40.5959 68.7703 38.4924 63.6669 38.4585 58.3416H58.481ZM58.7066 58.5672V78.7364C53.3982 78.6991 48.3158 76.5827 44.5498 72.8413L58.7066 58.5672ZM59.036 58.5672L73.1905 72.7984C69.4325 76.5558 64.3499 78.688 59.036 78.7364V58.5672ZM59.2616 58.3416H79.2818C79.249 63.6671 77.1454 68.7709 73.4161 72.5728L59.2616 58.3416ZM78.8329 37.9017L73.4183 43.3411C70.4464 40.3927 66.6486 38.4171 62.5283 37.6761H78.6027L78.8329 37.9017ZM59.036 37.3468V29.6604C66.1859 29.6953 73.0559 32.4433 78.2576 37.349L59.036 37.3468ZM58.7066 37.3468H39.485C44.6858 32.4397 51.5564 29.6915 58.7066 29.6581V37.3468ZM55.212 37.6761C51.0904 38.4171 47.2912 40.3927 44.3175 43.3411L38.9029 37.9017L39.1285 37.6761H55.212ZM38.6773 38.1274L44.0919 43.5644C40.3012 47.429 38.1635 52.6171 38.1314 58.0303H37.547V39.3592C37.9103 38.9418 38.287 38.5334 38.6773 38.1386V38.1274ZM37.2154 58.0303H30.4766C30.5017 51.3281 32.8877 44.8491 37.2154 39.7314V58.0303ZM37.2154 58.3597V76.6585C32.8877 71.5408 30.5017 65.0618 30.4766 58.3597H37.2154ZM37.5425 58.3597H38.1268C38.1586 63.7722 40.2964 68.9598 44.0873 72.8232L38.6728 78.2626C38.2825 77.8678 37.9057 77.4594 37.5448 77.0421L37.5425 58.3597ZM38.9097 78.5108L44.3242 73.0714C47.2961 76.0186 51.0928 77.9941 55.212 78.7364H39.1398L38.9097 78.5108ZM58.7066 79.0657V86.7544C51.5564 86.721 44.6858 83.9728 39.485 79.0657H58.7066ZM59.036 79.0657H78.2576C73.0559 83.9714 66.1859 86.7194 59.036 86.7544V79.0657ZM62.5283 78.7364C66.6502 77.9963 70.4497 76.0206 73.4228 73.0714L78.8374 78.5108L78.6118 78.7364H62.5283ZM79.0652 78.2852L73.6507 72.8458C77.44 68.9813 79.5775 63.7944 79.6112 58.3822H80.3828V76.848C79.9616 77.3354 79.5225 77.8144 79.0652 78.2852ZM80.7144 58.3822H87.257C87.2348 64.9832 84.9224 71.3718 80.7144 76.4577V58.3822ZM87.5931 58.0528C87.568 51.2396 85.1311 44.6553 80.7144 39.4674V37.6761H98.0635C101.329 43.968 103.041 50.9504 103.056 58.0393L87.5931 58.0528ZM80.7144 37.3603V36.4895L90.2305 26.926C93.2779 30.0127 95.8583 33.5279 97.8898 37.3603H80.7144ZM80.7144 36.0247V19.5871C84.1082 21.5317 87.2298 23.9167 89.9981 26.6801L80.7144 36.0247ZM80.3873 36.3541L79.3879 37.3603H78.7358C73.4494 32.2448 66.3922 29.3676 59.036 29.3287V13.789C66.5157 13.8054 73.8665 15.7379 80.3873 19.4021V36.3541ZM58.7066 29.3287C51.3522 29.3635 44.295 32.2358 39.0067 37.3468H38.3547L37.5425 36.5301V19.2938C44.0179 15.6977 51.2997 13.8029 58.7066 13.7868V29.3287ZM37.2154 36.2029L27.74 26.6801C30.5611 23.8661 33.7482 21.4447 37.2154 19.481V36.2029ZM37.2154 36.6699V37.3468H19.8438C21.8745 33.5138 24.4549 29.9986 27.5031 26.9125L37.2154 36.6699ZM37.2154 37.6784V39.2351C32.682 44.4545 30.1737 51.1283 30.1472 58.0416H14.6864C14.701 50.9519 16.413 43.9687 19.6791 37.6761L37.2154 37.6784ZM30.1472 58.3709C30.1737 65.2842 32.682 71.958 37.2154 77.1774V78.7364H19.6791C16.4133 72.4445 14.7014 65.4621 14.6864 58.3732L30.1472 58.3709ZM37.2154 79.0635V79.7403L27.5144 89.4932C24.4662 86.4072 21.8858 82.8919 19.855 79.059L37.2154 79.0635ZM37.2154 80.2096V96.9315C33.7482 94.9678 30.5611 92.5464 27.74 89.7324L37.2154 80.2096ZM37.5425 79.8802L38.3547 79.0635H39.0067C44.2947 84.1753 51.3519 87.0484 58.7066 87.0838V102.628C51.2996 102.61 44.0181 100.715 37.5425 97.1187V79.8802ZM59.036 87.0838C66.3903 87.0486 73.4473 84.1763 78.7358 79.0657H79.3879L80.3873 80.072V97.0104C73.8663 100.674 66.5157 102.607 59.036 102.626V87.0838ZM80.7144 80.4013L89.9981 89.7346C87.2288 92.4968 84.1073 94.8817 80.7144 96.8277V80.4013ZM80.7144 79.9366V79.0657H97.8898C95.8583 82.8982 93.2779 86.4134 90.2305 89.5L80.7144 79.9366ZM80.7144 78.7364V76.9586C85.1311 71.7707 87.568 65.1864 87.5931 58.3732H103.056C103.041 65.4621 101.329 72.4445 98.0635 78.7364H80.7144ZM103.383 58.3732H108.759V78.7364H98.4335C101.673 72.4356 103.369 65.4556 103.383 58.3709V58.3732ZM103.383 58.0438C103.37 50.9584 101.673 43.9776 98.4335 37.6761H108.759V58.0393L103.383 58.0438ZM98.2598 37.3513C96.2007 33.4302 93.5733 29.8351 90.4628 26.6824L108.552 8.50533L108.568 8.51887C108.635 8.58881 108.703 8.66326 108.771 8.74447V37.349L98.2598 37.3513ZM108.304 8.27747L90.2305 26.4477C87.3968 23.6194 84.1962 21.1844 80.7144 19.2081V8.05187H108.069L108.304 8.27747ZM80.3873 19.0253C73.8563 15.3917 66.5097 13.4758 59.036 13.4574V8.04284H80.3873V19.0253ZM59.036 7.72248V0.329384H80.3873V7.72248H59.036ZM58.7066 7.72248H37.5425V0.329384H58.7066V7.72248ZM58.7066 8.05187V13.4664C51.3055 13.4837 44.0277 15.362 37.5425 18.9283V8.05187H58.7066ZM37.2154 19.1065C33.6617 21.1001 30.3977 23.5709 27.5144 26.45L9.44108 8.27973L9.66669 8.05412H37.2154V19.1065ZM9.18615 8.51887L9.19969 8.50533L27.2797 26.6801C24.1679 29.8322 21.5397 33.4275 19.4805 37.349H8.98085V8.73545C9.05981 8.66326 9.11621 8.58881 9.18615 8.51887ZM19.3091 37.6761C16.0702 43.9762 14.3738 50.9554 14.3593 58.0393H8.98085V37.6761H19.3091ZM14.3593 58.3687C14.373 65.4541 16.0695 72.4349 19.3091 78.7364H8.98085V58.3709L14.3593 58.3687ZM19.4805 79.0612C21.5397 82.9828 24.1679 86.578 27.2797 89.7301L9.19969 107.907L9.18615 107.894C9.11621 107.824 9.05079 107.749 8.98085 107.668V79.0635L19.4805 79.0612ZM9.43883 108.135L27.5121 89.9648C30.396 92.8439 33.6599 95.3154 37.2131 97.3105V108.365H9.67346L9.43883 108.135ZM37.5425 97.4932C44.0277 101.06 51.3055 102.938 58.7066 102.955V108.37H37.5425V97.4932ZM58.7066 108.69V116.083H37.5425V108.69H58.7066ZM59.036 108.69H80.3873V116.083H59.036V108.69ZM59.036 108.361V102.946C66.5097 102.928 73.8563 101.012 80.3873 97.3782V108.352L59.036 108.361ZM80.7144 97.2044C84.1962 95.2281 87.3968 92.7931 90.2305 89.9648L108.304 108.135L108.078 108.361H80.7144V97.2044ZM108.552 107.894L108.536 107.907L90.4583 89.7324C93.5688 86.5797 96.1961 82.9845 98.2552 79.0635H108.755V107.677L108.552 107.894ZM116.701 28.2007V58.0416H109.089V37.6761H116.583V37.3468H109.089V9.08063C113.975 14.2479 116.698 21.0891 116.701 28.2007ZM107.726 7.71571H80.7144V0.329384H88.9693C95.9313 0.334525 102.633 2.97604 107.726 7.72248V7.71571ZM28.7642 0.322616H37.2154V7.71571H10.0164C15.1099 2.97207 21.8107 0.333032 28.771 0.329384L28.7642 0.322616ZM1.03953 88.2118V28.2007C1.04094 21.0865 3.7654 14.2426 8.65372 9.07386V37.3422H1.16361V37.6761H8.65372V58.0393H1.13654V58.3687H8.65372V78.7364H1.16361V79.0657H8.65372V107.334C3.76647 102.166 1.04209 95.3245 1.03953 88.2118V88.2118ZM10.0164 108.697H37.2154V116.09H28.771C21.8088 116.083 15.1078 113.439 10.0164 108.69V108.697ZM88.9783 116.09H80.7144V108.69H107.726C102.633 113.436 95.9312 116.078 88.9693 116.083L88.9783 116.09Z" fill="#6A7784"/>
<defs>
<linearGradient id="paint0_linear" x1="58.9147" y1="0.44751" x2="58.9147" y2="115.958" gradientUnits="userSpaceOnUse">
<stop stop-color="white"/>
<stop offset="1" stop-color="#F2F2F2"/>
</linearGradient>
</defs>
</svg>
